<svg width="63" height="62" viewBox="0 0 63 62" fill="none" xmlns="http://www.w3.org/2000/svg">
<path fill-rule="evenodd" clip-rule="evenodd" d="M3.32446 30.9999C3.32446 15.3058 16.047 2.58325 31.7411 2.58325C47.4352 2.58325 60.1578 15.3058 60.1578 30.9999C60.1578 46.694 47.4352 59.4166 31.7411 59.4166C16.047 59.4166 3.32446 46.694 3.32446 30.9999Z" fill="#9261E2"/>
<path fill-rule="evenodd" clip-rule="evenodd" d="M45.4604 20.7776C46.4693 21.7864 46.4693 23.4221 45.4604 24.431L29.4254 41.2226C28.4166 42.2315 26.7809 42.2315 25.772 41.2226L18.022 33.4726C17.0132 32.4638 17.0132 30.8281 18.022 29.8193C19.0309 28.8104 20.6666 28.8104 21.6754 29.8193L27.5987 35.7426L41.807 20.7776C42.8159 19.7687 44.4516 19.7687 45.4604 20.7776Z" fill="white"/>
</svg>
