<svg width="16" height="18" viewBox="0 0 16 18" fill="none" xmlns="http://www.w3.org/2000/svg">
<path d="M13.25 17.25H2.75C1.475 17.25 0.5 16.275 0.5 15V9.75C0.5 8.475 1.475 7.5 2.75 7.5H13.25C14.525 7.5 15.5 8.475 15.5 9.75V15C15.5 16.275 14.525 17.25 13.25 17.25ZM2.75 9C2.3 9 2 9.3 2 9.75V15C2 15.45 2.3 15.75 2.75 15.75H13.25C13.7 15.75 14 15.45 14 15V9.75C14 9.3 13.7 9 13.25 9H2.75Z" fill="#7C7C7C"/>
<path d="M4.25 9C3.8 9 3.5 8.7 3.5 8.25V5.25C3.5 4.05 3.95 2.925 4.85 2.1C5.675 1.2 6.8 0.75 8 0.75C10.1 0.75 11.975 2.25 12.425 4.35C12.5 4.725 12.2 5.175 11.825 5.25C11.45 5.325 11 5.1 10.925 4.65C10.625 3.225 9.425 2.25 8 2.25C7.175 2.25 6.425 2.55 5.9 3.15C5.3 3.675 5 4.425 5 5.25V8.25C5 8.7 4.7 9 4.25 9Z" fill="#7C7C7C"/>
</svg>
