<svg width="62" height="62" viewBox="0 0 62 62" fill="none" xmlns="http://www.w3.org/2000/svg">
<path fill-rule="evenodd" clip-rule="evenodd" d="M30.9999 7.74992C18.1593 7.74992 7.74992 18.1593 7.74992 30.9999C7.74992 43.8405 18.1593 54.2499 30.9999 54.2499C43.8405 54.2499 54.2499 43.8405 54.2499 30.9999C54.2499 18.1593 43.8405 7.74992 30.9999 7.74992ZM2.58325 30.9999C2.58325 15.3058 15.3058 2.58325 30.9999 2.58325C46.694 2.58325 59.4166 15.3058 59.4166 30.9999C59.4166 46.694 46.694 59.4166 30.9999 59.4166C15.3058 59.4166 2.58325 46.694 2.58325 30.9999Z" fill="#FF5757"/>
<path fill-rule="evenodd" clip-rule="evenodd" d="M40.5766 21.4232C41.5855 22.4321 41.5855 24.0678 40.5766 25.0766L25.0766 40.5766C24.0678 41.5855 22.4321 41.5855 21.4232 40.5766C20.4144 39.5678 20.4144 37.9321 21.4232 36.9232L36.9232 21.4232C37.9321 20.4144 39.5678 20.4144 40.5766 21.4232Z" fill="#FF5757"/>
<path fill-rule="evenodd" clip-rule="evenodd" d="M21.4232 21.4232C22.4321 20.4144 24.0678 20.4144 25.0766 21.4232L40.5766 36.9232C41.5855 37.9321 41.5855 39.5678 40.5766 40.5766C39.5678 41.5855 37.9321 41.5855 36.9232 40.5766L21.4232 25.0766C20.4144 24.0678 20.4144 22.4321 21.4232 21.4232Z" fill="#FF5757"/>
</svg>
